<?xml version="1.0" standalone="no"?>
<!DOCTYPE svg PUBLIC "-//W3C//DTD SVG 20010904//EN"
 "http://www.w3.org/TR/2001/REC-SVG-20010904/DTD/svg10.dtd">
<svg shape-rendering="geometricPrecision" text-rendering="geometricPrecision" version="1.0" xmlns="http://www.w3.org/2000/svg"
 width="1350.000000pt" height="1165.000000pt" viewBox="0 0 1350.000000 1165.000000"
 preserveAspectRatio="xMidYMid meet">

  <defs>
    <linearGradient id="polishedSilver" x1="0%" y1="0%" x2="100%" y2="100%">
      <stop offset="0%" style="stop-color:#A9A9A9;stop-opacity:1" />
      <stop offset="20%" style="stop-color:#E8E8E8;stop-opacity:1" />
      <stop offset="40%" style="stop-color:#FFFFFF;stop-opacity:1" /> <stop offset="60%" style="stop-color:#E8E8E8;stop-opacity:1" />
      <stop offset="80%" style="stop-color:#D3D3D3;stop-opacity:1" />
      <stop offset="100%" style="stop-color:#A9A9A9;stop-opacity:1" />
    </linearGradient>
  </defs>

<g transform="translate(0.000000,1165.000000) scale(0.100000,-0.100000)"
fill="url(#polishedSilver)" stroke="none">

<path d="M3770 9674 c-240 -35 -407 -158 -507 -372 -67 -143 -66 -138 -69
-851 -2 -464 -6 -651 -14 -672 -26 -61 -39 -63 -335 -70 -307 -6 -335 -12
-477 -92 -146 -84 -234 -177 -306 -322 -80 -161 -76 -93 -79 -1260 -4 -1144
-3 -1180 56 -1330 60 -156 170 -275 323 -349 163 -79 102 -76 1386 -77 1208
-1 1174 0 1217 -49 19 -21 20 -40 25 -459 4 -386 7 -440 22 -467 25 -46 61
-56 190 -56 121 1 149 11 175 63 10 19 13 340 13 1459 0 1346 1 1437 18 1469
9 19 30 44 45 55 28 21 32 21 1141 21 l1112 0 77 -38 c61 -30 87 -50 120 -93
79 -100 82 -117 82 -459 l0 -300 -31 -65 c-36 -75 -65 -108 -148 -171 -92 -69
-100 -83 -104 -199 -3 -55 -1 -116 2 -135 9 -44 53 -95 110 -129 58 -34 126
-112 151 -172 19 -46 20 -80 25 -639 5 -547 6 -593 23 -618 10 -16 30 -33 45
-40 21 -9 398 -13 1592 -15 861 -2 1590 0 1619 3 44 6 62 14 89 41 l34 34 -4
140 c-3 137 -3 140 -31 167 l-27 28 -1328 5 -1327 5 -57 23 c-80 32 -150 99
-190 180 l-33 67 -3 1025 c-2 1009 -2 1026 18 1092 34 112 131 210 250 250 26
10 361 14 1353 18 l1319 5 29 33 c29 32 29 34 29 153 0 89 -4 128 -16 150 -31
61 -6 59 -896 59 -789 0 -814 1 -845 20 -68 41 -63 -65 -63 1457 0 1332 -1
1379 -19 1420 -16 34 -27 44 -59 54 -52 15 -239 8 -269 -11 -50 -32 -48 23
-53 -1385 -4 -1028 -8 -1326 -18 -1348 -24 -56 -73 -117 -117 -147 -92 -63
-42 -61 -1177 -58 l-1033 3 -67 33 c-70 34 -107 72 -149 152 l-24 45 -5 1322
-5 1322 -21 28 c-11 15 -32 34 -45 40 -19 10 -319 12 -1369 11 -740 0 -1356
-2 -1370 -4z m2329 -417 c13 -6 34 -25 45 -40 19 -26 21 -44 24 -215 4 -210
-4 -246 -63 -282 -32 -19 -52 -20 -806 -20 -485 0 -787 -4 -810 -10 -66 -18
-74 -36 -77 -177 -4 -137 3 -166 46 -198 26 -19 47 -20 747 -25 665 -5 723 -6
760 -23 105 -47 164 -114 191 -216 13 -52 15 -135 12 -568 -4 -574 -2 -557
-83 -649 -29 -34 -64 -60 -107 -80 l-63 -29 -1380 -5 c-1357 -5 -1381 -5
-1414 -25 -19 -11 -43 -33 -55 -48 -21 -28 -21 -36 -24 -632 -3 -660 -3 -654
54 -692 27 -17 78 -18 924 -23 857 -5 896 -6 923 -24 48 -32 50 -45 48 -280
-2 -245 -7 -267 -66 -292 -49 -20 -2203 -21 -2280 0 -115 30 -204 107 -247
214 l-23 57 0 1010 c0 954 1 1013 18 1065 39 116 137 209 256 242 62 17 142
18 1364 18 1194 0 1301 1 1327 17 42 24 50 53 50 177 0 124 -11 170 -44 189
-16 9 -203 13 -766 17 l-745 5 -57 23 c-72 29 -139 101 -164 174 -15 46 -17
105 -15 570 2 567 3 570 61 652 40 55 93 93 163 117 49 17 120 18 1152 19 854
0 1105 -3 1124 -13z m-1158 -2960 c51 -34 54 -52 53 -289 -1 -245 -4 -254 -75
-290 -31 -17 -86 -18 -712 -18 -747 0 -728 -2 -767 62 -18 30 -20 50 -20 248
0 198 2 218 20 248 39 64 14 62 780 59 644 -2 697 -3 721 -20z"/>
<path d="M7261 9667 c-13 -6 -34 -25 -45 -40 -21 -28 -21 -30 -24 -1070 -2
-573 0 -1071 3 -1106 6 -53 12 -69 40 -100 l33 -36 610 0 c605 0 611 0 639 21
15 12 37 36 48 55 20 33 20 55 23 1099 2 711 0 1077 -7 1101 -6 19 -22 46 -37
60 -23 22 -36 24 -127 27 -110 4 -164 -7 -193 -39 -18 -20 -19 -53 -24 -923
-6 -993 -2 -938 -67 -982 -25 -17 -51 -19 -229 -22 -223 -4 -257 3 -291 54
-17 27 -18 78 -23 934 -5 853 -6 907 -23 932 -10 14 -32 31 -49 37 -43 15
-227 14 -257 -2z"/>
<path d="M6065 5691 c-11 -5 -29 -19 -40 -31 -18 -20 -20 -36 -20 -162 l0
-140 33 -29 32 -29 618 0 c663 0 646 -1 686 53 18 25 21 42 21 140 0 73 -5
123 -14 145 -27 64 -7 62 -683 61 -337 0 -622 -4 -633 -8z"/>
<path d="M9073 5667 l-36 -34 -5 -105 c-5 -122 5 -166 49 -203 l31 -25 1096 0
c851 0 1102 3 1121 13 51 26 61 53 63 182 3 131 -9 171 -59 194 -17 8 -354 11
-1124 11 l-1099 0 -37 -33z"/>
<path d="M6069 4657 c-72 -47 -69 -21 -69 -707 0 -657 -1 -644 51 -682 22 -16
43 -19 144 -19 101 -1 122 2 144 19 51 37 51 38 51 487 0 470 0 472 70 508 31
16 60 17 245 15 184 -3 214 -5 239 -21 55 -36 56 -49 56 -507 0 -457 1 -463
55 -488 33 -15 245 -16 278 -1 13 6 31 24 41 40 15 26 17 84 18 656 2 576 1
631 -15 660 -34 65 -14 63 -675 63 l-599 0 -34 -23z"/>
<path d="M9101 4667 c-52 -27 -65 -60 -69 -175 -3 -118 9 -158 59 -194 24 -18
66 -19 970 -22 519 -2 1018 -1 1107 3 l164 6 29 33 c29 32 29 33 29 158 0 137
-10 172 -57 193 -37 17 -2200 15 -2232 -2z"/>
</g>
</svg>
