<svg shape-rendering="geometricPrecision" text-rendering="geometricPrecision" width="447" height="447" version="1.1" xmlns="http://www.w3.org/2000/svg" desc="Created with imagetracer.js version 1.2.6" >
  <defs>
    <linearGradient id="polishedSilver" x1="0%" y1="0%" x2="100%" y2="100%">
      <stop offset="0%" style="stop-color:#A9A9A9;stop-opacity:1" />
      <stop offset="20%" style="stop-color:#E8E8E8;stop-opacity:1" />
      <stop offset="40%" style="stop-color:#FFFFFF;stop-opacity:1" /> <stop offset="60%" style="stop-color:#E8E8E8;stop-opacity:1" />
      <stop offset="80%" style="stop-color:#D3D3D3;stop-opacity:1" />
      <stop offset="100%" style="stop-color:#A9A9A9;stop-opacity:1" />
    </linearGradient>
  </defs>

  <path fill="rgb(0,0,0)" stroke="rgb(0,0,0)" stroke-width="1" opacity="0" d="M 0 0 L 447 0 L 447 447 L 0 447 L 0 0 Z M 275 131 L 272 134 L 273 138 L 279 137 L 278 132 L 275 131 Z M 276 140 L 277 142 Q 278 139 276 140 Z M 274 141 L 255 167 L 253 168 L 244 155 L 240 151 L 237 156 L 239 173 L 242 174 L 240 177 Q 239 183 241 185 L 252 186 L 265 192 L 279 196 L 283 195 L 290 175 L 297 163 L 298 158 L 294 159 L 277 172 L 276 154 L 275 153 L 276 143 L 274 141 Z M 236 143 L 234 145 L 235 149 Q 234 151 237 150 Q 240 149 239 145 L 236 143 Z M 300 147 L 297 150 Q 296 156 300 157 Q 306 158 307 154 L 305 148 L 300 147 Z M 192 166 Q 190 168 186 167 L 180 176 Q 181 180 179 182 L 179 215 L 178 216 Q 169 215 165 217 L 165 219 L 162 210 Q 153 198 139 193 L 119 188 L 115 190 L 113 194 L 115 199 L 121 200 Q 127 198 126 202 Q 118 204 112 210 L 104 220 Q 103 226 106 229 L 106 230 L 101 229 L 88 244 L 74 255 L 61 261 Q 55 262 54 259 L 54 247 L 59 228 L 71 204 L 79 193 L 87 186 L 90 186 L 94 190 Q 100 191 101 187 L 100 176 L 97 173 L 87 174 L 75 183 Q 76 185 74 184 L 68 192 L 54 218 L 47 237 L 46 248 L 45 249 Q 42 266 53 271 L 65 271 L 75 266 L 94 250 Q 96 251 95 249 L 98 247 L 108 237 L 108 232 L 108 230 L 113 234 L 121 234 L 122 235 L 143 233 L 154 230 L 161 226 L 163 223 L 163 225 L 168 229 L 178 234 Q 182 236 179 238 L 179 260 L 180 263 L 183 264 Q 189 265 191 262 L 191 251 L 190 250 L 191 240 L 210 250 Q 216 251 217 247 Q 218 241 216 239 L 200 233 L 188 227 L 190 225 L 199 224 L 217 219 L 228 213 L 230 210 L 230 201 L 217 183 L 200 167 L 192 166 Z M 340 170 L 335 176 L 332 189 L 331 203 L 330 204 L 329 234 L 328 240 L 323 227 L 322 217 L 317 201 L 317 197 L 313 186 L 310 182 L 304 183 L 301 187 L 301 257 Q 299 258 300 263 Q 301 267 309 266 L 313 261 L 311 257 L 311 224 L 310 223 L 311 213 L 318 243 L 326 264 Q 327 267 333 266 L 338 261 L 338 213 L 339 212 L 339 204 L 342 189 L 347 177 L 347 174 Q 346 169 340 170 Z M 240 184 Q 238 187 241 188 Q 244 189 243 186 L 240 184 Z M 239 188 L 234 193 L 235 198 Q 239 201 247 201 L 234 209 Q 226 213 224 222 L 226 230 L 231 233 L 242 235 L 264 233 L 277 229 L 281 226 L 284 222 Q 286 214 283 211 L 268 197 L 257 192 L 253 192 L 239 188 Z M 368 192 L 359 203 L 339 239 Q 338 245 343 246 L 347 246 Q 360 235 377 228 L 382 230 L 388 229 L 389 222 L 403 217 Q 407 215 405 209 L 402 207 L 399 207 L 386 212 L 380 199 L 376 193 Q 374 191 368 192 Z M 292 235 L 264 242 L 234 246 L 227 251 L 227 254 L 232 258 L 245 255 L 251 255 L 282 247 L 290 247 L 297 245 L 300 241 L 299 239 Q 298 234 292 235 Z " />
  <path fill="rgb(0,0,0)" stroke="rgb(0,0,0)" stroke-width="1" opacity="0" d="M 269.5 158 L 270 179.5 L 272.5 182 L 274.5 182 L 284.5 174 L 284 175.5 L 279 192 L 272.5 190 L 256.5 181 L 246.5 179 L 244 176.5 L 242 161.5 L 243 161.5 L 250 171.5 L 251 176 L 257 175 L 269.5 158 Z M 245 167 Q 243 170 246 171 L 247 171 L 245 167 Z M 251 176 L 252 179 L 255 179 L 251 176 Z " />
  <path fill="rgb(0,0,0)" stroke="rgb(0,0,0)" stroke-width="1" opacity="0" d="M 192.5 177 Q 203.9 180.6 210 189.5 L 219 204.5 L 213.5 209 L 188 215 L 188 188.5 L 190 179.5 L 192.5 177 Z " />
  <path fill="rgb(0,0,0)" stroke="rgb(0,0,0)" stroke-width="1" opacity="0" d="M 370.5 207 Q 374.6 211.1 374 218 L 361 224 L 367 210.5 L 370.5 207 Z " />
  <path fill="rgb(0,0,0)" stroke="rgb(0,0,0)" stroke-width="1" opacity="0" d="M 139.5 208 L 144.5 208 L 151 213.5 L 152 217.5 L 147.5 221 L 123.5 225 L 117 223 Q 116 219.2 118.5 218 Q 127.3 211.3 139.5 208 Z " />
  <path fill="rgb(0,0,0)" stroke="rgb(0,0,0)" stroke-width="1" opacity="0" d="M 259.5 208 L 268 209 L 272 214.5 L 272 217.5 L 267.5 221 L 254.5 224 L 243.5 225 L 237 223 L 237 220.5 L 241.5 216 L 259.5 208 Z " />

  <path fill="url(#polishedSilver)" stroke="url(#polishedSilver)" stroke-width="1" opacity="1" d="M 274.5 131 L 278 132 L 279 137 L 273 138 L 272 133.5 L 274.5 131 Z " />
  <path fill="url(#polishedSilver)" stroke="url(#polishedSilver)" stroke-width="1" opacity="1" d="M 275.5 140 Q 277.8 139.3 277 141.5 Q 274.1 145.1 275 152.5 L 276 153.5 L 276.5 172 L 293.5 159 L 298 158 L 297 162.5 L 290 174.5 L 283 195 L 278.5 196 L 264.5 192 L 251.5 186 L 241.5 185 L 241.5 186 Q 244.1 185.3 243 188 L 240 188.5 L 256.5 192 L 267.5 197 L 283 210.5 Q 285.5 214 284 221.5 L 280.5 226 L 276.5 229 L 263.5 233 L 241.5 235 L 230.5 233 L 226 230 L 224 221.5 Q 226.4 212.9 233.5 209 L 247 200.5 Q 239.2 200.8 235 197.5 L 234 192.5 L 240 187.5 L 239 184.5 L 241 184.5 L 240 176.5 L 242 173.5 L 239 173 L 237 155.5 L 239.5 151 L 244 154.5 L 252.5 168 L 255 166.5 L 273.5 141 L 275.5 140 Z M 270 158 L 257 175 L 251 177 L 255 178 L 255 179 Q 251 180 250 178 L 251 176 L 250 172 L 246 169 L 247 171 L 246 171 L 244 168 L 246 168 L 244 164 L 243 164 L 244 177 L 247 179 L 257 181 L 273 190 L 279 192 L 284 176 L 285 174 L 275 182 L 273 182 L 270 180 L 270 158 Z M 260 208 L 242 216 L 237 221 L 237 223 L 244 225 L 255 224 L 268 221 L 272 218 L 272 215 L 268 209 L 260 208 Z " />
  <path fill="url(#polishedSilver)" stroke="url(#polishedSilver)" stroke-width="1" opacity="1" d="M 235.5 143 L 239 144.5 Q 239.8 149.3 236.5 150 Q 234.3 150.8 235 148.5 L 234 144.5 L 235.5 143 Z " />
  <path fill="url(#polishedSilver)" stroke="url(#polishedSilver)" stroke-width="1" opacity="1" d="M 299.5 147 L 305 148 L 307 153.5 Q 306 158 299.5 157 Q 295.8 155.8 297 149.5 L 299.5 147 Z " />
  <path fill="url(#polishedSilver)" stroke="url(#polishedSilver)" stroke-width="1" opacity="1" d="M 191.5 166 L 199.5 167 L 217 182.5 L 230 200.5 L 230 209.5 L 227.5 213 L 216.5 219 L 198.5 224 L 189.5 225 L 188 226.5 L 199.5 233 L 216 239 Q 217.6 241.1 217 246.5 Q 216 251 209.5 250 L 190.5 240 L 190 249.5 L 191 250.5 L 191 261.5 Q 189 265 182.5 264 L 180 263 L 179 259.5 L 179 237.5 Q 181.8 235.8 177.5 234 L 167.5 229 L 163 224.5 L 162.5 223 L 160.5 226 L 153.5 230 L 142.5 233 L 121.5 235 L 120.5 234 L 112.5 234 L 108.5 231 L 108 236.5 L 97.5 247 L 95 248.5 Q 95.8 250.8 93.5 250 L 74.5 266 L 64.5 271 L 52.5 271 Q 42.1 266.4 45 248.5 L 46 247.5 L 47 236.5 L 54 217.5 L 68 191.5 L 73.5 184 Q 75.8 184.8 75 182.5 L 86.5 174 L 96.5 173 L 100 175.5 L 101 186.5 Q 100 191 93.5 190 L 89.5 186 L 86.5 186 L 79 192.5 L 71 203.5 L 59 227.5 L 54 246.5 L 54 258.5 Q 55.4 261.6 60.5 261 L 73.5 255 L 88 243.5 L 100.5 229 L 105.5 230 L 106 228.5 Q 102.8 226.2 104 219.5 L 111.5 210 Q 117.6 204.3 126 202 Q 127.4 198 120.5 200 L 115 199 L 113 193.5 L 115 190 L 118.5 188 L 138.5 193 Q 153.3 198.2 162 209.5 L 164.5 219 L 165 217 Q 168.6 214.7 177.5 216 L 179 214.5 L 179 181.5 Q 181.3 180.3 180 175.5 L 185.5 167 Q 190.3 168.3 191.5 166 Z M 193 177 L 190 180 L 188 189 L 188 215 L 214 209 L 219 205 L 210 190 Q 204 181 193 177 Z M 140 208 Q 127 211 119 218 Q 116 219 117 223 L 124 225 L 148 221 L 152 218 L 151 214 L 145 208 L 140 208 Z " />
  <path fill="url(#polishedSilver)" stroke="url(#polishedSilver)" stroke-width="1" opacity="1" d="M 339.5 170 Q 346 169 347 173.5 L 347 176.5 L 342 188.5 L 339 203.5 L 339 211.5 L 338 212.5 L 338 260.5 L 332.5 266 Q 327 267 326 263.5 L 318 242.5 L 310.5 213 L 310 222.5 L 311 223.5 L 311 256.5 L 313 260.5 L 308.5 266 Q 301.3 267.3 300 262.5 Q 298.7 257.8 301 256.5 L 301 186.5 L 303.5 183 L 309.5 182 L 313 185.5 L 317 196.5 L 317 200.5 L 322 216.5 L 323 226.5 L 327.5 240 L 329 233.5 L 330 203.5 L 331 202.5 L 332 188.5 L 335 175.5 L 339.5 170 Z " />
  <path fill="url(#polishedSilver)" stroke="url(#polishedSilver)" stroke-width="1" opacity="1" d="M 367.5 192 Q 373.6 191.2 376 193 L 380 198.5 L 385.5 212 L 398.5 207 L 401.5 207 L 405 209 Q 406.5 215.3 402.5 217 L 389 222 L 388 229 L 381.5 230 L 376.5 228 Q 359.7 235.2 346.5 246 L 342.5 246 Q 338 245 339 238.5 L 359 202.5 L 367.5 192 Z M 371 207 L 367 211 L 361 224 L 374 218 Q 375 211 371 207 Z " />
  <path fill="url(#polishedSilver)" stroke="url(#polishedSilver)" stroke-width="1" opacity="1" d="M 291.5 235 Q 298 234 299 238.5 L 300 240.5 L 296.5 245 L 289.5 247 L 281.5 247 L 250.5 255 L 244.5 255 L 231.5 258 L 227 253.5 L 227 250.5 L 233.5 246 L 263.5 242 L 291.5 235 Z " />
</svg>
