<?xml version="1.0" standalone="no"?>
<!DOCTYPE svg PUBLIC "-//W3C//DTD SVG 20010904//EN"
 "http://www.w3.org/TR/2001/REC-SVG-20010904/DTD/svg10.dtd">
<svg shape-rendering="geometricPrecision" text-rendering="geometricPrecision" version="1.0" xmlns="http://www.w3.org/2000/svg"
 width="100%" height="100%" viewBox="210 70 160 160"
 preserveAspectRatio="xMidYMid meet">
 
  <defs>
    <linearGradient id="polishedSilver" x1="0%" y1="0%" x2="100%" y2="100%">
      <stop offset="0%" style="stop-color:#A9A9A9;stop-opacity:1" />
      <stop offset="20%" style="stop-color:#E8E8E8;stop-opacity:1" />
      <stop offset="40%" style="stop-color:#FFFFFF;stop-opacity:1" /> <stop offset="60%" style="stop-color:#E8E8E8;stop-opacity:1" />
      <stop offset="80%" style="stop-color:#D3D3D3;stop-opacity:1" />
      <stop offset="100%" style="stop-color:#A9A9A9;stop-opacity:1" />
    </linearGradient>
  </defs>

  <g transform="translate(0.000000,338.000000) scale(0.100000,-0.100000)"
     fill="url(#polishedSilver)" stroke="none">
     
    <path d="M3016 2412 c-3 -4 4 -9 15 -9 23 -2 25 3 4 10 -8 4 -16 3 -19 -1z"/>
    <path d="M2974 2388 l-19 -23 23 19 c12 11 22 21 22 23 0 8 -8 2 -26 -19z"/>
    <path d="M3311 2380 c-127 -84 -248 -250 -276 -378 -9 -42 -16 -34 -45 48 -43
    124 -122 232 -223 307 -88 65 -91 63 -84 -59 7 -132 32 -212 113 -364 54 -102
    64 -129 64 -170 0 -62 -21 -152 -65 -280 -48 -138 -47 -161 10 -213 66 -61
    125 -84 215 -85 66 -1 84 3 142 32 37 18 81 49 98 69 38 42 38 42 -20 228 -23
    71 -46 163 -52 204 l-11 74 77 151 c53 105 81 172 90 221 18 90 30 245 19 245
    -4 0 -28 -13 -52 -30z m-540 -145 c46 -95 73 -193 93 -330 l5 -40 -19 25 c-34
    43 -108 203 -124 265 -8 33 -18 91 -22 129 -9 92 5 82 67 -49z m491 29 c-74
    -147 -94 -228 -102 -419 -5 -93 -15 -199 -24 -235 -20 -84 -20 -201 0 -296 8
    -42 13 -78 11 -81 -9 -9 -106 -31 -111 -25 -14 14 -4 39 26 64 35 29 19 41
    -18 14 -16 -12 -22 -12 -46 2 -37 22 -50 5 -15 -20 29 -21 37 -58 11 -58 -25
    0 -104 22 -104 29 0 3 7 29 16 56 23 71 22 251 0 335 -12 44 -19 111 -21 205
    -3 167 -31 289 -94 416 -23 45 -41 84 -41 86 0 10 74 -61 117 -111 59 -68 107
    -168 128 -263 25 -112 24 -110 35 -93 6 8 10 27 10 42 0 49 49 184 91 249 38
    60 158 193 167 185 2 -2 -14 -39 -36 -82z m63 -78 c-11 -56 -32 -114 -71 -191
    -71 -141 -78 -147 -70 -65 14 126 53 251 114 359 l37 66 3 -44 c2 -24 -4 -80
    -13 -125z m-440 -563 c14 -36 18 -230 5 -297 -7 -36 -16 -68 -20 -71 -15 -9
    -90 66 -90 91 0 13 18 77 40 143 22 65 40 126 40 135 0 21 16 20 25 -1z m303
    -15 c6 -18 26 -87 46 -152 l37 -120 -45 -45 c-25 -25 -48 -43 -51 -39 -11 11
    -35 144 -35 196 0 66 20 192 31 192 4 0 12 -15 17 -32z"/>
    <path d="M3014 2357 c-3 -8 -4 -20 -2 -27 5 -22 -23 -23 -29 -1 -3 12 -12 21
    -19 21 -17 0 -18 -22 -2 -38 7 -7 17 -27 22 -44 9 -27 16 -33 40 -33 24 0 31
    6 39 30 5 17 16 37 23 46 18 20 18 39 0 39 -7 0 -16 -9 -19 -21 -7 -27 -33
    -19 -29 9 3 24 -16 40 -24 19z m40 -82 c-7 -16 -20 -31 -31 -32 -15 -2 -15 -2
    2 6 19 8 19 9 -4 12 -13 2 -27 13 -31 24 -7 18 -4 20 35 20 l42 0 -13 -30z"/>
    <path d="M2530 1824 c0 -3 6 -11 13 -18 8 -8 11 -37 9 -89 -3 -61 -7 -77 -20
    -80 -9 -3 13 -5 51 -6 55 -1 71 3 88 20 25 25 21 60 -8 74 -21 11 -21 11 -2
    24 27 16 21 52 -11 68 -25 13 -120 18 -120 7z m115 -34 c9 -27 -11 -50 -41
    -50 -21 0 -24 5 -24 35 0 32 2 35 29 35 21 0 32 -6 36 -20z m-4 -79 c19 -16
    22 -23 13 -37 -31 -52 -74 -43 -74 16 0 33 3 40 19 40 10 0 29 -9 42 -19z"/>
    <path d="M3372 1817 c12 -10 17 -31 18 -82 3 -92 3 -93 -17 -98 -10 -3 16 -5
    58 -6 62 -1 78 2 83 15 12 31 5 39 -12 16 -14 -17 -26 -23 -48 -20 l-29 3 -3
    83 c-2 68 0 82 13 82 8 0 15 5 15 10 0 6 -21 10 -47 10 -41 -1 -46 -3 -31 -13z"/>
    
  </g>
</svg>
